<svg id="Capa_1" enable-background="new 0 0 512 512" height="512" viewBox="0 0 512 512" width="512" xmlns="http://www.w3.org/2000/svg"><g><path d="m178.011 115.784c-2.105-5.025-6.986-8.272-12.435-8.272h-66.851c-9.632 0-17.468 7.836-17.468 17.468v314.553c0 9.632 7.836 17.468 17.468 17.468h314.552c9.632 0 17.468-7.836 17.468-17.468v-114.024c0-5.396-3.204-10.259-8.161-12.388l-13.261-5.694v-50.342l13.26-5.694c4.958-2.129 8.162-6.991 8.162-12.388v-114.024c0-9.632-7.836-17.468-17.468-17.468h-66.852c-5.448 0-10.329 3.247-12.436 8.273l-8.136 19.427h-139.706zm-79.286 6.728h65.842l8.137 19.428c2.105 5.025 6.986 8.272 12.435 8.272h48.302v26.057h-137.184v-51.289c0-1.361 1.107-2.468 2.468-2.468zm201.915 27.7 20.405 12.827c5.148 3.237 8.793 7.939 10.705 13.229h-53.189v-26.057h22.079zm31.896 41.057c-.484 1.963-1.203 3.903-2.169 5.783-5.548 10.803-17.654 16.319-29.45 13.414l-.997-.246 7.884-18.952h24.732zm-40.978 0-8.48 20.386h-54.153l-8.48-20.386zm-35.557 53.079-8.406-17.693h16.812zm-87.612 197.652v-25.98c0-9.128 7.426-16.555 16.554-16.555 67.339.001 127.866 0 142.115 0 9.128 0 16.554 7.427 16.554 16.555v25.98zm234.094-198.303c-4.958 2.13-8.161 6.992-8.161 12.388v52.342c0 5.396 3.203 10.258 8.161 12.388l13.261 5.694v113.023c0 1.36-1.107 2.468-2.468 2.468h-54.665v-25.98c0-17.399-14.155-31.555-31.554-31.555h-23.324c1.172-2.839 1.823-5.947 1.823-9.204v-20.293c0-6.638-5.196-12.232-11.829-12.737-18.686-1.423-27.915-10.791-29.924-30.374-.673-6.559-6.138-11.504-12.71-11.504h-20.445c-13.347 0-24.204 10.858-24.204 24.205v9.226c0 4.143 3.357 7.5 7.5 7.5s7.5-3.357 7.5-7.5v-9.226c0-5.076 4.129-9.205 9.204-9.205h18.46c3.18 24.771 17.461 39.121 41.448 41.65v18.258c0 5.07-4.119 9.193-9.186 9.204h-50.742c-5.066-.011-9.185-4.135-9.185-9.204v-11.491c0-4.143-3.357-7.5-7.5-7.5s-7.5 3.357-7.5 7.5v11.491c0 3.258.651 6.365 1.823 9.204h-23.325c-17.398 0-31.554 14.155-31.554 31.555v25.98h-54.662c-1.36 0-2.468-1.107-2.468-2.468v-248.263h107.94l11.241 27.021c2.112 5.081 7.033 8.364 12.536 8.364h3.013l13.519 28.455c2.128 4.48 6.531 7.264 11.492 7.265h.002c4.961 0 9.365-2.783 11.494-7.264l13.519-28.456h3.013c3.093 0 6.002-1.038 8.332-2.849l4.971 1.225c3.313.816 6.642 1.21 9.925 1.21 15.122 0 29.277-8.357 36.456-22.335 2.098-4.083 3.453-8.346 4.118-12.637h67.916v46.734zm-63.184-101.759 8.136-19.427h65.842c1.36 0 2.468 1.107 2.468 2.468v51.289h-68.381c-2.281-10.377-8.607-19.813-18.336-25.929l-.397-.25c4.716-.617 8.792-3.675 10.668-8.151zm-75.738 8.274v26.057h-15.121v-26.057z"/><path d="m293.054 123.512c7.68 0 13.928-6.248 13.928-13.928v-18.593c0-7.68-6.248-13.928-13.928-13.928h-74.107c-7.68 0-13.927 6.248-13.927 13.928v18.593c0 7.68 6.247 13.928 13.927 13.928zm-73.034-31.449h71.962v16.448h-71.962z"/><path d="m437.03 300.407c4.143 0 7.5-3.357 7.5-7.5v-22.823c0-4.143-3.357-7.5-7.5-7.5s-7.5 3.357-7.5 7.5v22.823c0 4.143 3.358 7.5 7.5 7.5z"/><path d="m447.136 480.77h1.373c4.143 0 7.5-3.357 7.5-7.5s-3.357-7.5-7.5-7.5h-1.373c-4.143 0-7.5 3.357-7.5 7.5s3.357 7.5 7.5 7.5z"/><path d="m447.25 95.903c4.143 0 7.5-3.357 7.5-7.5s-3.357-7.5-7.5-7.5h-1.372c-4.143 0-7.5 3.357-7.5 7.5s3.357 7.5 7.5 7.5z"/><path d="m66.123 80.903h-1.373c-4.143 0-7.5 3.357-7.5 7.5s3.357 7.5 7.5 7.5h1.373c4.143 0 7.5-3.357 7.5-7.5s-3.357-7.5-7.5-7.5z"/><path d="m66.123 468.609h-1.373c-4.143 0-7.5 3.357-7.5 7.5s3.357 7.5 7.5 7.5h1.373c4.143 0 7.5-3.357 7.5-7.5s-3.357-7.5-7.5-7.5z"/><path d="m313.854 41.256c4.143 0 7.5-3.357 7.5-7.5s-3.357-7.5-7.5-7.5h-115.707c-4.143 0-7.5 3.357-7.5 7.5s3.357 7.5 7.5 7.5z"/><path d="m478.244 413.239c4.143 0 7.5-3.357 7.5-7.5v-328.426c0-13.676-11.126-24.802-24.802-24.802h-30.198v-20.697c0-17.543-14.271-31.814-31.814-31.814h-205.748c-4.143 0-7.5 3.357-7.5 7.5s3.357 7.5 7.5 7.5h205.748c9.271 0 16.814 7.543 16.814 16.814v20.697h-319.487v-20.697c0-9.271 7.543-16.814 16.814-16.814h50.123c4.143 0 7.5-3.357 7.5-7.5s-3.357-7.5-7.5-7.5h-50.123c-17.543 0-31.814 14.271-31.814 31.814v20.697h-30.199c-13.676 0-24.802 11.126-24.802 24.802v409.885c0 13.676 11.126 24.802 24.802 24.802h409.885c13.676 0 24.802-11.126 24.802-24.802v-51.472c0-4.143-3.357-7.5-7.5-7.5s-7.5 3.357-7.5 7.5v51.472c0 5.404-4.397 9.802-9.802 9.802h-409.885c-5.404 0-9.802-4.397-9.802-9.802v-409.885c0-5.404 4.397-9.802 9.802-9.802h409.885c5.404 0 9.802 4.397 9.802 9.802v328.426c-.001 4.143 3.357 7.5 7.499 7.5z"/></g></svg>