<svg id="Capa_1" enable-background="new 0 0 511.512 511.512" height="512" viewBox="0 0 511.512 511.512" width="512" xmlns="http://www.w3.org/2000/svg"><path d="m504.256 67.403h-75.681v-5.392c0-25.096-39.007-25.142-39.007 0v5.392h-75.681c-9.675 0-9.675 15 0 15h75.681v28.567h-11.171c-4.143 0-7.5 3.358-7.5 7.5v19.67l-45.523-16.737c-44.895-16.505-94.343-16.504-139.236 0l-46.412 17.063v-19.996c0-4.142-3.358-7.5-7.5-7.5h-10.283v-28.567h75.681c9.674 0 9.674-15 0-15h-75.681v-5.392c0-25.096-39.006-25.142-39.006 0v5.392h-75.681c-9.674 0-9.674 15 0 15h75.681v28.567h-11.172c-4.142 0-7.5 3.358-7.5 7.5v22.286h-16.606c-29.192 0-29.75 45.23-.396 45.23h54.217c2.246 0 4.072 1.827 4.072 4.073 0 9.115 3.642 17.392 9.54 23.466-18.449 7.761-32.467 24.392-36.281 45.094l-35.876 194.721h-12.43c-9.674 0-9.674 15 0 15h42c9.674 0 9.674-15 0-15h-14.317l35.374-192.003c4.01-21.765 22.984-37.562 45.116-37.562 9.236-.111 17.594 5.429 19.878 14.647l9.304 37.555c3.799 15.332 17.484 26.041 33.279 26.041h35.558v38.347h-55.183c-4.142 0-7.5 3.358-7.5 7.5v86.245c0 4.142 3.358 7.5 7.5 7.5h24.242c9.674 0 9.674-15 0-15h-16.742v-71.245h133.483v71.245h-74.741c-9.674 0-9.674 15 0 15h82.241c4.143 0 7.5-3.358 7.5-7.5v-86.245c0-4.142-3.357-7.5-7.5-7.5h-52.516v-38.347h32.891c15.795 0 29.48-10.708 33.278-26.04l1.177-4.749c2.329-9.39-12.232-12.999-14.559-3.608l-1.178 4.749c-2.137 8.625-9.834 14.648-18.719 14.648h-109.231c-8.885 0-16.583-6.023-18.72-14.648l-9.304-37.555c-3.295-13.3-14.183-22.971-27.486-25.498-11.741-2.23-25.078-3.469-25.078-19.257 0-10.517-8.556-19.073-19.072-19.073h-54.217c-10.048 0-9.617-15.23.396-15.23 0 0 88.936-.156 89.764-.46l53.89-19.813c41.556-15.278 87.328-15.278 128.885 0l53.891 19.813c.829.305 89.764.46 89.764.46 10.013 0 10.444 15.23.396 15.23h-42.672-11.545-258.748c-9.674 0-9.674 15 0 15h240.124c-.287 1.314-.448 2.674-.448 4.073 0 10.32-8.396 18.715-18.715 18.715-15.82-.048-30.015 10.56-33.85 26.041-2.324 9.391 12.234 12.996 14.561 3.606 2.284-9.223 10.559-14.647 19.761-14.647 22.19 0 41.173 15.846 45.136 37.677l34.784 191.889h-13.631c-9.675 0-9.675 15 0 15h42c9.674 0 9.674-15 0-15h-13.125l-35.269-194.566c-3.768-20.753-17.763-37.426-36.222-45.217 5.916-6.077 9.569-14.367 9.569-23.497 0-2.246 1.827-4.073 4.072-4.073h11.545 42.672c29.265 0 28.898-45.23-.396-45.23h-17.495v-22.288c0-4.142-3.357-7.5-7.5-7.5h-10.282v-28.567h75.681c9.674 0 9.674-15 0-15zm-241.775 235.058v37.014h-10.784v-37.014zm-164.544-240.45c0-5.821 9.006-5.821 9.006 0v5.392h-9.006zm0 20.392h9.006v28.567h-9.006zm-18.672 43.567h11.172 24.006 10.283v14.341h-45.46v-14.341zm325.303-63.959c0-5.822 9.007-5.821 9.007 0v5.392h-9.007zm26.789 78.3h-45.46v-14.341h11.171 24.007 10.282zm-17.782-29.341h-9.007v-28.567h9.007z"/><path d="m253.031 391.431c0-14.921-12.139-27.061-27.061-27.061s-27.061 12.139-27.061 27.061 12.139 27.061 27.061 27.061 27.061-12.14 27.061-27.061zm-27.061 12.06c-6.65 0-12.061-5.41-12.061-12.061s5.41-12.061 12.061-12.061 12.061 5.41 12.061 12.061-5.41 12.061-12.061 12.061z"/><path d="m303.324 381.148c9.674 0 9.674-15 0-15h-27.563c-9.675 0-9.675 15 0 15z"/></svg>